<?xml version="1.0" encoding="utf-8"?>
<!-- Generator: Adobe Illustrator 26.2.1, SVG Export Plug-In . SVG Version: 6.00 Build 0)  -->
<svg version="1.1" xmlns="http://www.w3.org/2000/svg" xmlns:xlink="http://www.w3.org/1999/xlink" x="0px" y="0px"
	 width="194.883px" height="194.885px" viewBox="0 0 194.883 194.885" style="enable-background:new 0 0 194.883 194.885;"
	 xml:space="preserve">
<style type="text/css">
	.st0{fill:#231F20;}
</style>
<g id="Vrstva_1">
</g>
<g id="Layer_2">
	<g>
		<g>
			<path class="st0" d="M55.098,157.363c1.986,1.322,4.039,2.555,6.154,3.69h72.006c2.115-1.136,4.168-2.368,6.154-3.69H55.098z"/>
			<path class="st0" d="M43.924,148.264c1.434,1.416,2.922,2.778,4.469,4.076h97.727c1.545-1.298,3.033-2.66,4.467-4.076H43.924z"/>
			<path class="st0" d="M72.893,166.085c7.641,2.567,15.836,3.961,24.361,3.961c8.527,0,16.723-1.394,24.363-3.961H72.893z"/>
			<path class="st0" d="M36.215,139.352c1.012,1.375,2.066,2.718,3.17,4.02h115.742c1.102-1.302,2.156-2.645,3.168-4.02H36.215z"/>
		</g>
		<path class="st0" d="M35.648,142.473"/>
		<path class="st0" d="M97.441,194.885c-26.027,0-50.498-10.136-68.902-28.541C10.135,147.939,0,123.47,0,97.442
			C0,71.415,10.135,46.944,28.539,28.54S71.414,0,97.441,0c26.027,0,50.498,10.136,68.902,28.54s28.539,42.875,28.539,68.902
			c0,26.027-10.135,50.497-28.539,68.901C147.939,184.749,123.469,194.885,97.441,194.885z M97.441,1.305
			c-53.012,0-96.137,43.126-96.137,96.138c0,53.011,43.125,96.139,96.137,96.139c53.01,0,96.139-43.128,96.139-96.139
			C193.58,44.431,150.451,1.305,97.441,1.305z"/>
		<polygon class="st0" points="154.773,105.06 151.084,108.482 151.084,112.494 142.635,112.481 142.629,108.482 139.055,105.06 
			135.354,108.482 135.352,108.482 135.354,112.494 121.51,112.494 121.51,108.445 117.926,105.06 114.225,108.482 114.227,133.91 
			158.326,133.91 158.336,108.482 		"/>
		<g>
			<path class="st0" d="M80.084,48.777V47.88c0.846-0.084,1.438-0.223,1.771-0.414c0.334-0.194,0.584-0.651,0.75-1.373h0.924v9.29
				h-1.25v-6.605H80.084z"/>
			<path class="st0" d="M89.73,53.122c0.037,0.648,0.285,1.094,0.75,1.342c0.238,0.131,0.51,0.195,0.809,0.195
				c0.559,0,1.037-0.233,1.434-0.701c0.395-0.467,0.674-1.414,0.84-2.842c-0.262,0.412-0.584,0.702-0.969,0.869
				c-0.383,0.166-0.797,0.251-1.24,0.251c-0.898,0-1.609-0.28-2.133-0.839c-0.523-0.561-0.785-1.281-0.785-2.162
				c0-0.845,0.258-1.588,0.775-2.23c0.518-0.643,1.279-0.963,2.285-0.963c1.359,0,2.297,0.611,2.814,1.836
				c0.287,0.672,0.43,1.514,0.43,2.525c0,1.141-0.17,2.151-0.516,3.032c-0.566,1.468-1.531,2.2-2.891,2.2
				c-0.912,0-1.605-0.238-2.078-0.717c-0.473-0.476-0.709-1.076-0.709-1.797H89.73z M92.783,50.749
				c0.385-0.306,0.576-0.84,0.576-1.604c0-0.685-0.172-1.195-0.518-1.532c-0.344-0.335-0.785-0.503-1.318-0.503
				c-0.572,0-1.029,0.191-1.365,0.576c-0.336,0.383-0.506,0.896-0.506,1.537c0,0.606,0.148,1.089,0.443,1.447
				c0.297,0.357,0.768,0.537,1.414,0.537C91.975,51.208,92.398,51.054,92.783,50.749z"/>
			<path class="st0" d="M98.697,53.284c0.291-0.594,0.853-1.135,1.691-1.621l1.25-0.723c0.561-0.327,0.953-0.604,1.18-0.835
				c0.357-0.36,0.535-0.774,0.535-1.239c0-0.545-0.164-0.977-0.49-1.296c-0.324-0.32-0.76-0.48-1.301-0.48
				c-0.805,0-1.359,0.306-1.668,0.916c-0.164,0.325-0.258,0.779-0.273,1.358H98.43c0.012-0.812,0.162-1.475,0.447-1.987
				c0.51-0.903,1.404-1.354,2.691-1.354c1.068,0,1.848,0.289,2.342,0.867c0.492,0.576,0.738,1.219,0.738,1.928
				c0,0.746-0.262,1.384-0.787,1.914c-0.305,0.309-0.85,0.681-1.637,1.121l-0.891,0.494c-0.426,0.234-0.76,0.459-1.004,0.672
				c-0.434,0.377-0.707,0.796-0.82,1.256h5.094v1.108h-6.402C98.244,54.579,98.41,53.88,98.697,53.284z"/>
			<path class="st0" d="M108.898,49.924c-0.342-0.348-0.514-0.799-0.514-1.354c0-0.695,0.252-1.291,0.754-1.791
				c0.504-0.5,1.217-0.75,2.141-0.75c0.895,0,1.594,0.237,2.102,0.707c0.508,0.471,0.762,1.022,0.762,1.65
				c0,0.582-0.148,1.055-0.443,1.414c-0.164,0.204-0.42,0.404-0.768,0.6c0.389,0.178,0.691,0.382,0.914,0.611
				c0.414,0.436,0.623,1,0.623,1.694c0,0.82-0.277,1.517-0.828,2.087c-0.553,0.572-1.332,0.857-2.338,0.857
				c-0.908,0-1.676-0.246-2.303-0.74c-0.627-0.492-0.941-1.208-0.941-2.146c0-0.552,0.135-1.028,0.404-1.43
				c0.268-0.402,0.668-0.709,1.197-0.923C109.336,50.273,109.08,50.11,108.898,49.924z M112.68,54.141
				c0.357-0.292,0.537-0.729,0.537-1.311c0-0.604-0.184-1.062-0.553-1.375c-0.369-0.312-0.844-0.469-1.422-0.469
				c-0.559,0-1.016,0.16-1.369,0.479c-0.355,0.319-0.531,0.762-0.531,1.326c0,0.485,0.16,0.906,0.486,1.26
				c0.322,0.354,0.822,0.531,1.5,0.531C111.871,54.581,112.322,54.435,112.68,54.141z M112.463,49.528
				c0.289-0.289,0.436-0.634,0.436-1.035c0-0.348-0.139-0.666-0.416-0.959c-0.277-0.291-0.699-0.437-1.268-0.437
				c-0.564,0-0.971,0.146-1.223,0.437c-0.252,0.293-0.377,0.633-0.377,1.025c0,0.439,0.162,0.783,0.486,1.03
				c0.326,0.249,0.711,0.373,1.152,0.373C111.77,49.963,112.172,49.817,112.463,49.528z"/>
		</g>
		<path class="st0" d="M91.127,96.785c0,0,14.16-19.24,36.561-29.479c16.02-7.322,39.131-10.705,47.367-11.501
			c0,0,0.342,0.651-1.496,1.11c-13.592,3.369-29.877,7.454-39.023,12.641c-10.672,6.055-23.244,19.588-28.074,28.141
			c-3.42,6.064-10.428,17.117-28.529,9.445c-12.447-5.278-19.479-10.43-29.223-12.489c-10.645-2.251-27.041,0.847-36.223,2.224
			c-3.008,0.448-2.676-0.578-2.676-0.578s27.943-10.334,50.545-6.175c19.709,3.626,27.809,11.901,37.258,8.184L91.127,96.785z"/>
		<g>
			<path class="st0" d="M26.73,42.543l0.83-1.06l8.896,2.907l-0.805,1.028l-2.641-0.9l-2.127,2.719l1.486,2.375l-0.754,0.963
				L26.73,42.543z M32.039,44.187l-3.897-1.328l2.193,3.504L32.039,44.187z"/>
			<path class="st0" d="M31.393,36.909l4.459-4.571l0.771,0.753l-3.646,3.74l1.912,1.865l3.371-3.457l0.729,0.711l-3.371,3.457
				l2.137,2.082l3.709-3.805l0.75,0.732l-4.519,4.636L31.393,36.909z"/>
			<path class="st0" d="M38.402,30.001l3.098-2.529c0.51-0.416,0.994-0.684,1.447-0.803c0.867-0.223,1.619,0.057,2.258,0.84
				c0.334,0.408,0.523,0.81,0.566,1.208c0.043,0.397-0.021,0.799-0.195,1.204c0.354-0.109,0.67-0.13,0.947-0.063
				c0.279,0.066,0.588,0.292,0.928,0.675l0.777,0.887c0.223,0.253,0.402,0.429,0.539,0.527c0.232,0.171,0.445,0.229,0.637,0.176
				l0.127,0.152l-1.133,0.925c-0.08-0.034-0.166-0.089-0.26-0.167c-0.094-0.078-0.256-0.244-0.486-0.5l-0.984-1.092
				c-0.385-0.428-0.789-0.596-1.213-0.501c-0.238,0.056-0.543,0.233-0.908,0.533l-2.043,1.668l2.387,2.923l-0.924,0.754
				L38.402,30.001z M43.951,30.675c0.42-0.344,0.684-0.701,0.787-1.075s-0.029-0.786-0.398-1.237
				c-0.396-0.486-0.838-0.678-1.324-0.573c-0.26,0.057-0.543,0.21-0.85,0.462l-2.191,1.789l1.9,2.33L43.951,30.675z"/>
			<path class="st0" d="M53.367,20.78c0.91,0.348,1.688,1.033,2.336,2.06c0.701,1.111,1.002,2.213,0.902,3.305
				c-0.115,1.282-0.787,2.31-2.014,3.084c-1.145,0.723-2.283,0.912-3.414,0.569c-1.045-0.36-1.92-1.099-2.623-2.213
				c-0.635-1.007-0.928-2.024-0.881-3.057c0.062-1.323,0.721-2.382,1.977-3.175C50.965,20.526,52.203,20.335,53.367,20.78z
				 M55.473,26.084c-0.006-0.888-0.27-1.745-0.793-2.573c-0.551-0.875-1.225-1.436-2.02-1.681c-0.795-0.245-1.588-0.118-2.383,0.384
				c-0.77,0.484-1.23,1.146-1.383,1.982c-0.152,0.836,0.096,1.768,0.746,2.799c0.522,0.826,1.168,1.389,1.943,1.692
				c0.773,0.303,1.629,0.159,2.564-0.432C55.037,27.695,55.479,26.972,55.473,26.084z"/>
			<path class="st0" d="M56.18,17.814l1.047-0.5l1.854,3.888l2.123-5.78l1.504-0.717l-1.867,4.823l5.721,3.088l-1.408,0.67
				l-4.748-2.637l-0.713,1.84l1.32,2.77l-1.049,0.5L56.18,17.814z"/>
			<path class="st0" d="M65.047,13.821l1.123-0.4l2.602,7.302l4.158-1.482l0.352,0.987l-5.279,1.883L65.047,13.821z"/>
			<path class="st0" d="M74.246,10.824l1.273,5.288c0.15,0.621,0.393,1.109,0.727,1.464c0.498,0.537,1.16,0.706,1.984,0.507
				c0.99-0.238,1.582-0.736,1.777-1.494c0.104-0.41,0.08-0.924-0.068-1.542l-1.273-5.288l1.17-0.281l1.158,4.804
				c0.254,1.053,0.307,1.896,0.158,2.531c-0.273,1.158-1.135,1.913-2.584,2.262c-1.449,0.349-2.557,0.069-3.324-0.838
				c-0.42-0.499-0.758-1.273-1.012-2.325l-1.156-4.805L74.246,10.824z"/>
			<path class="st0" d="M83.215,8.886l3.775-0.469c1.029-0.127,1.799,0.088,2.309,0.644c0.301,0.329,0.479,0.73,0.537,1.201
				c0.068,0.551-0.031,1.021-0.301,1.414c-0.141,0.206-0.354,0.405-0.639,0.598c0.469,0.115,0.828,0.266,1.076,0.453
				c0.439,0.331,0.699,0.832,0.783,1.502c0.07,0.562-0.045,1.094-0.344,1.594c-0.445,0.747-1.246,1.191-2.402,1.335l-3.715,0.46
				L83.215,8.886z M87.004,12.165c0.506-0.062,0.889-0.181,1.152-0.354c0.414-0.272,0.586-0.692,0.516-1.259
				c-0.072-0.57-0.354-0.926-0.846-1.066c-0.277-0.078-0.678-0.085-1.199-0.021l-2.131,0.265l0.334,2.705L87.004,12.165z
				 M87.902,16.146c0.732-0.091,1.229-0.365,1.488-0.824c0.164-0.29,0.223-0.623,0.176-1c-0.078-0.633-0.418-1.03-1.018-1.189
				c-0.32-0.085-0.73-0.097-1.23-0.035l-2.369,0.294l0.379,3.073L87.902,16.146z"/>
			<path class="st0" d="M97.531,7.752l3.801,0.137c1.037,0.038,1.764,0.372,2.18,1.002c0.244,0.373,0.355,0.796,0.34,1.271
				c-0.021,0.555-0.195,1.003-0.523,1.348c-0.17,0.182-0.412,0.345-0.725,0.489c0.445,0.188,0.775,0.394,0.99,0.617
				c0.383,0.397,0.56,0.934,0.537,1.607c-0.021,0.566-0.219,1.073-0.592,1.52c-0.561,0.666-1.422,0.979-2.586,0.938l-3.74-0.135
				L97.531,7.752z M101.01,15.663c0.736,0.027,1.269-0.166,1.6-0.576c0.207-0.262,0.318-0.58,0.33-0.96
				c0.023-0.638-0.248-1.084-0.816-1.336c-0.301-0.135-0.703-0.212-1.207-0.23l-2.387-0.086l-0.113,3.095L101.01,15.663z
				 M100.754,11.591c0.508,0.018,0.904-0.037,1.191-0.167c0.453-0.203,0.69-0.591,0.709-1.161c0.021-0.575-0.201-0.971-0.666-1.188
				c-0.262-0.121-0.654-0.191-1.18-0.21l-2.146-0.077l-0.098,2.724L100.754,11.591z"/>
			<path class="st0" d="M107.502,8.308l3.957,0.6c0.65,0.098,1.172,0.275,1.566,0.533c0.746,0.492,1.043,1.238,0.893,2.237
				c-0.078,0.521-0.252,0.931-0.518,1.231c-0.264,0.299-0.605,0.52-1.023,0.662c0.318,0.189,0.547,0.41,0.686,0.66
				c0.137,0.252,0.178,0.631,0.121,1.14l-0.135,1.173c-0.039,0.334-0.049,0.584-0.029,0.754c0.029,0.287,0.129,0.483,0.299,0.59
				l-0.029,0.195l-1.447-0.219c-0.027-0.081-0.043-0.183-0.049-0.305c-0.006-0.122,0.008-0.354,0.045-0.695l0.146-1.463
				c0.061-0.572-0.088-0.984-0.441-1.236c-0.203-0.139-0.539-0.244-1.006-0.315l-2.607-0.394l-0.565,3.731l-1.178-0.178
				L107.502,8.308z M110.729,12.873c0.537,0.082,0.979,0.036,1.326-0.139c0.346-0.173,0.562-0.548,0.648-1.125
				c0.096-0.62-0.061-1.075-0.465-1.366c-0.215-0.154-0.519-0.261-0.91-0.32l-2.799-0.424l-0.451,2.974L110.729,12.873z"/>
			<path class="st0" d="M120.176,10.744l1.299,0.352l0.781,9.328l-1.262-0.342l-0.197-2.784l-3.332-0.902l-1.609,2.294l-1.18-0.319
				L120.176,10.744z M120.725,16.273l-0.291-4.106l-2.375,3.384L120.725,16.273z"/>
			<path class="st0" d="M132.125,14.751l-0.367,0.98l-2.775-1.043l-2.729,7.255l-1.127-0.425l2.729-7.254l-2.775-1.045l0.369-0.981
				L132.125,14.751z"/>
			<path class="st0" d="M134.609,15.923l1.092,0.51l-3.721,7.975l-1.092-0.51L134.609,15.923z"/>
			<path class="st0" d="M136.441,23.442c-0.223,0.447-0.324,0.855-0.305,1.225c0.043,0.695,0.482,1.28,1.318,1.756
				c0.373,0.213,0.746,0.352,1.117,0.416c0.717,0.123,1.234-0.094,1.551-0.649c0.236-0.417,0.279-0.785,0.127-1.105
				c-0.156-0.319-0.471-0.697-0.943-1.137l-0.869-0.805c-0.57-0.525-0.938-0.958-1.105-1.297c-0.289-0.587-0.252-1.197,0.109-1.834
				c0.391-0.686,0.941-1.119,1.656-1.297c0.713-0.178,1.492-0.025,2.342,0.457c0.779,0.443,1.332,1.014,1.658,1.711
				c0.326,0.697,0.246,1.472-0.236,2.322l-0.975-0.555c0.182-0.438,0.254-0.812,0.217-1.123c-0.076-0.571-0.477-1.063-1.203-1.477
				c-0.586-0.333-1.078-0.443-1.482-0.332c-0.4,0.11-0.699,0.336-0.893,0.676c-0.213,0.375-0.219,0.736-0.014,1.081
				c0.135,0.224,0.504,0.618,1.109,1.183l0.9,0.836c0.434,0.403,0.729,0.784,0.885,1.145c0.268,0.625,0.207,1.277-0.178,1.958
				c-0.482,0.847-1.127,1.282-1.936,1.305c-0.809,0.023-1.609-0.192-2.406-0.645c-0.928-0.527-1.516-1.183-1.764-1.968
				c-0.25-0.781-0.135-1.582,0.344-2.402L136.441,23.442z"/>
			<path class="st0" d="M147.049,22.854l0.971,0.69l-4.49,6.317l3.6,2.559l-0.607,0.854l-4.57-3.248L147.049,22.854z"/>
			<path class="st0" d="M155.723,29.506l1.012,0.886l-3.389,8.726l-0.984-0.86l1.045-2.588l-2.6-2.273l-2.453,1.355l-0.918-0.805
				L155.723,29.506z M153.791,34.716l1.539-3.817l-3.619,1.999L153.791,34.716z"/>
			<path class="st0" d="M160.809,34.21l-3.732,6.972l7.174-3.309l0.914,0.975l-8.613,3.683l-0.865-0.921l4.223-8.359L160.809,34.21z
				"/>
			<path class="st0" d="M167.824,42.224l0.818,1.066l-5.025,7.896l-0.795-1.035l1.527-2.335l-2.105-2.736l-2.67,0.851l-0.746-0.969
				L167.824,42.224z M164.912,46.956l2.256-3.443l-3.939,1.254L164.912,46.956z"/>
		</g>
		<g>
			<path class="st0" d="M41.619,155.145l0.91,0.81l-5.111,5.748l3.371,2.996l-0.693,0.778l-4.279-3.807L41.619,155.145z"/>
			<path class="st0" d="M47.545,160.27l5.283,3.828l-0.629,0.866l-4.32-3.131l-1.555,2.148l3.994,2.893l-0.594,0.818l-3.994-2.893
				l-1.736,2.396l4.394,3.185l-0.609,0.843l-5.357-3.881L47.545,160.27z"/>
			<path class="st0" d="M60.561,168.662l-0.52,0.902l-2.625-1.511l-3.836,6.668l-1.065-0.613l3.834-6.668l-2.625-1.511l0.518-0.901
				L60.561,168.662z"/>
			<path class="st0" d="M62.594,169.591l1.111,0.529l-3.75,7.886l-1.111-0.528L62.594,169.591z"/>
			<path class="st0" d="M64.885,177.12c-0.15,0.473-0.184,0.892-0.102,1.252c0.16,0.679,0.699,1.191,1.619,1.538
				c0.412,0.154,0.809,0.237,1.191,0.246c0.742,0.017,1.225-0.271,1.447-0.864c0.168-0.445,0.148-0.815-0.057-1.108
				c-0.211-0.291-0.59-0.618-1.139-0.981l-1.008-0.667c-0.66-0.434-1.104-0.807-1.328-1.116c-0.389-0.536-0.455-1.145-0.199-1.822
				c0.275-0.734,0.758-1.241,1.443-1.52c0.688-0.279,1.496-0.243,2.43,0.108c0.857,0.323,1.508,0.805,1.953,1.445
				c0.443,0.639,0.494,1.413,0.15,2.321l-1.07-0.403c0.111-0.458,0.119-0.838,0.029-1.139c-0.172-0.553-0.658-0.979-1.455-1.28
				c-0.645-0.243-1.158-0.279-1.545-0.111c-0.385,0.168-0.645,0.434-0.783,0.797c-0.15,0.4-0.096,0.756,0.168,1.067
				c0.174,0.2,0.611,0.535,1.314,1.004l1.043,0.691c0.504,0.334,0.865,0.667,1.082,0.999c0.373,0.576,0.424,1.229,0.149,1.956
				c-0.34,0.904-0.914,1.427-1.723,1.566c-0.809,0.141-1.648,0.046-2.523-0.284c-1.02-0.384-1.721-0.945-2.102-1.683
				c-0.383-0.732-0.402-1.538-0.059-2.416L64.885,177.12z"/>
			<path class="st0" d="M74.746,174.362l1.15,0.29l-1.045,4.144l5.406-3.046l1.65,0.416l-4.586,2.479l2.529,6.01l-1.545-0.39
				l-2.051-5.042l-1.748,0.946l-0.744,2.95l-1.152-0.29L74.746,174.362z"/>
			<path class="st0" d="M90.715,178.601c0.498,0.84,0.672,1.857,0.523,3.053c-0.16,1.294-0.631,2.328-1.412,3.102
				c-0.918,0.91-2.113,1.272-3.582,1.091c-1.373-0.169-2.396-0.742-3.074-1.721c-0.596-0.936-0.812-2.053-0.652-3.352
				c0.145-1.171,0.568-2.138,1.271-2.897c0.9-0.974,2.105-1.369,3.611-1.182C88.975,176.889,90.08,177.523,90.715,178.601z
				 M88.967,183.993c0.568-0.684,0.912-1.508,1.031-2.473c0.125-1.019-0.047-1.873-0.52-2.562c-0.471-0.69-1.184-1.094-2.135-1.211
				c-0.924-0.114-1.713,0.1-2.373,0.645c-0.66,0.543-1.062,1.415-1.211,2.616c-0.119,0.961,0.031,1.802,0.449,2.523
				c0.418,0.722,1.189,1.151,2.311,1.289C87.584,184.951,88.4,184.676,88.967,183.993z"/>
			<path class="st0" d="M98.236,177.581l3.879-0.222c1.059-0.061,1.828,0.201,2.311,0.785c0.283,0.346,0.438,0.753,0.465,1.224
				c0.031,0.55-0.104,1.011-0.406,1.38c-0.156,0.196-0.387,0.38-0.691,0.552c0.471,0.145,0.824,0.316,1.064,0.518
				c0.426,0.356,0.656,0.868,0.695,1.537c0.033,0.562-0.121,1.081-0.459,1.557c-0.508,0.713-1.354,1.102-2.543,1.169l-3.816,0.218
				L98.236,177.581z M101.873,181.07c0.518-0.029,0.918-0.121,1.197-0.277c0.441-0.242,0.645-0.646,0.611-1.214
				c-0.031-0.569-0.295-0.939-0.787-1.109c-0.277-0.095-0.684-0.127-1.219-0.097l-2.191,0.125l0.152,2.7L101.873,181.07z
				 M102.514,185.07c0.752-0.042,1.277-0.283,1.572-0.721c0.188-0.277,0.27-0.602,0.248-0.979c-0.035-0.633-0.355-1.048-0.955-1.244
				c-0.32-0.104-0.736-0.143-1.25-0.113l-2.438,0.141l0.176,3.067L102.514,185.07z"/>
			<path class="st0" d="M114.781,176.863c0.725,0.655,1.191,1.576,1.406,2.762c0.23,1.283,0.088,2.409-0.43,3.381
				c-0.607,1.141-1.639,1.841-3.098,2.105c-1.361,0.244-2.51,0.001-3.445-0.732c-0.846-0.718-1.385-1.721-1.617-3.007
				c-0.209-1.162-0.092-2.21,0.354-3.145c0.572-1.198,1.605-1.931,3.1-2.201C112.611,175.744,113.855,176.023,114.781,176.863z
				 M114.711,182.532c0.34-0.82,0.424-1.709,0.25-2.665c-0.182-1.012-0.6-1.777-1.256-2.295c-0.654-0.52-1.453-0.693-2.396-0.523
				c-0.916,0.165-1.607,0.605-2.076,1.32c-0.467,0.715-0.596,1.667-0.381,2.857c0.172,0.952,0.566,1.711,1.178,2.276
				c0.615,0.564,1.477,0.745,2.59,0.546C113.674,183.858,114.373,183.354,114.711,182.532z"/>
			<path class="st0" d="M117.52,174.879l1.168-0.345l2.176,7.378l4.326-1.276l0.295,0.998l-5.494,1.62L117.52,174.879z"/>
			<path class="st0" d="M124.984,172.562l6.037-2.472l0.404,0.99l-4.938,2.023l1.004,2.453l4.564-1.869l0.383,0.936l-4.564,1.869
				l1.123,2.739l5.021-2.057l0.395,0.963l-6.121,2.506L124.984,172.562z"/>
			<path class="st0" d="M133.342,168.981l3.578-1.974c0.588-0.324,1.121-0.508,1.598-0.548c0.906-0.075,1.602,0.327,2.086,1.204
				c0.252,0.459,0.361,0.887,0.326,1.286c-0.033,0.399-0.178,0.783-0.43,1.153c0.375-0.048,0.693-0.016,0.959,0.097
				c0.264,0.111,0.527,0.384,0.791,0.819l0.604,1.004c0.172,0.286,0.316,0.489,0.434,0.609c0.199,0.207,0.398,0.301,0.602,0.279
				l0.094,0.172l-1.307,0.721c-0.072-0.046-0.148-0.115-0.227-0.208c-0.08-0.092-0.207-0.283-0.387-0.573l-0.768-1.24
				c-0.301-0.486-0.67-0.718-1.111-0.697c-0.25,0.016-0.586,0.141-1.01,0.374l-2.357,1.301l1.809,3.279l-1.066,0.587
				L133.342,168.981z M138.736,170.574c0.486-0.268,0.816-0.577,0.994-0.928c0.176-0.351,0.123-0.779-0.156-1.286
				c-0.301-0.545-0.703-0.807-1.209-0.786c-0.27,0.013-0.58,0.117-0.936,0.312l-2.531,1.396l1.441,2.613L138.736,170.574z"/>
			<path class="st0" d="M143.955,159.602l-0.332,2.348l-0.688,0.49l-0.086-2.049L143.955,159.602z M143.777,162.686l1.119-0.799
				l7.727,5.216l-1.086,0.774l-2.283-1.585l-2.871,2.048l0.727,2.696l-1.018,0.725L143.777,162.686z M148.414,165.71l-3.367-2.338
				l1.07,3.977L148.414,165.71z"/>
			<path class="st0" d="M153.6,165.038l-0.328-8.689l-3.828,3.403l-0.691-0.776l5.004-4.448l0.676,0.76l0.279,8.684l4.156-3.694
				l0.691,0.777l-5.307,4.716L153.6,165.038z"/>
		</g>
		<g>
			<path class="st0" d="M84.287,40.177v-0.35c0.172-0.184,0.352-0.439,0.533-0.767c-0.176-0.025-0.264-0.097-0.264-0.213
				c0-0.098,0.058-0.224,0.176-0.378c0.119-0.154,0.258-0.293,0.418-0.416c0.158-0.123,0.283-0.186,0.375-0.186
				c0.104,0,0.156,0.043,0.156,0.129c0,0.034-0.01,0.057-0.029,0.065c-0.025,0.016-0.037,0.042-0.037,0.081
				c0,0.031,0.025,0.047,0.076,0.047c0.156,0,0.355-0.032,0.594-0.098c0.236-0.064,0.4-0.096,0.488-0.096
				c0.072,0,0.121,0.066,0.146,0.203c0.066,0.359,0.1,0.562,0.1,0.609c0,0.045-0.02,0.086-0.059,0.125
				c-0.041,0.04-0.15,0.118-0.332,0.234c-0.182,0.117-0.348,0.229-0.504,0.338c-0.154,0.109-0.354,0.262-0.6,0.457
				c0.17,0.078,0.293,0.167,0.371,0.265c0.076,0.098,0.145,0.247,0.201,0.449l1.182-0.927v0.316l-1.191,0.96
				c-0.031,0.303-0.137,0.61-0.314,0.923c-0.178,0.312-0.385,0.592-0.621,0.842c-0.236,0.248-0.473,0.453-0.705,0.611
				c-0.234,0.16-0.404,0.239-0.512,0.239c-0.104,0-0.176-0.034-0.217-0.102c-0.041-0.067-0.061-0.167-0.061-0.296
				c0-0.185,0.039-0.362,0.119-0.529c0.08-0.167,0.197-0.334,0.352-0.498c0.152-0.166,0.336-0.335,0.553-0.507
				c0.215-0.172,0.504-0.381,0.863-0.626c-0.035-0.225-0.094-0.363-0.176-0.419c-0.082-0.056-0.207-0.11-0.377-0.166
				c-0.168-0.055-0.252-0.138-0.252-0.248c0-0.123,0.592-0.595,1.774-1.414c-0.189,0.038-0.412,0.08-0.666,0.126
				c-0.256,0.045-0.498,0.078-0.729,0.097c-0.162,0.255-0.314,0.479-0.459,0.671C84.516,39.925,84.391,40.072,84.287,40.177z
				 M85.496,41.528c-0.227,0.158-0.445,0.336-0.656,0.532c-0.211,0.197-0.395,0.384-0.547,0.561
				c-0.152,0.177-0.229,0.284-0.229,0.321c0,0.072,0.031,0.109,0.094,0.109c0.113,0,0.26-0.063,0.439-0.189
				c0.18-0.126,0.355-0.307,0.525-0.541C85.293,42.086,85.418,41.822,85.496,41.528z"/>
			<path class="st0" d="M88.168,38.913c0.479-0.435,0.943-0.758,1.395-0.969c0.451-0.211,0.799-0.316,1.045-0.316
				c0.066,0,0.127,0.027,0.186,0.082c0.057,0.056,0.1,0.119,0.135,0.191c0.031,0.072,0.049,0.127,0.049,0.161
				c0,0.057-0.021,0.099-0.066,0.126c-0.045,0.026-0.121,0.059-0.233,0.096c0.024,0.051,0.051,0.115,0.086,0.194
				c0.035,0.079,0.061,0.144,0.08,0.192c0.019,0.049,0.029,0.092,0.029,0.129c0,0.076-0.078,0.217-0.23,0.424
				c-0.152,0.207-0.26,0.358-0.32,0.456c-0.062,0.098-0.094,0.218-0.094,0.359c0,0.233,0.107,0.35,0.322,0.35
				c0.221,0,0.566-0.207,1.035-0.62v0.288c-0.797,0.887-1.367,1.33-1.711,1.33c-0.123,0-0.211-0.041-0.264-0.121
				c-0.051-0.08-0.078-0.199-0.078-0.357c0-0.249,0.09-0.609,0.269-1.082c-0.459,0.51-0.801,0.873-1.025,1.09
				c-0.225,0.216-0.408,0.323-0.553,0.323c-0.07,0-0.156-0.06-0.26-0.18c-0.105-0.12-0.197-0.274-0.277-0.466
				c-0.08-0.19-0.121-0.389-0.121-0.594c0-0.147,0.016-0.271,0.043-0.371c0.029-0.099,0.084-0.201,0.166-0.305
				S87.988,39.084,88.168,38.913z M90.432,38.394c-0.818,0.375-1.402,0.693-1.752,0.955c-0.348,0.262-0.521,0.531-0.521,0.809
				c0,0.102,0.018,0.184,0.053,0.248c0.033,0.065,0.08,0.098,0.141,0.098c0.035,0,0.096-0.022,0.186-0.066
				c0.33-0.195,0.633-0.449,0.906-0.764C89.719,39.359,90.049,38.933,90.432,38.394z"/>
			<path class="st0" d="M94.152,39.708v0.35c-0.658,0.874-1.193,1.311-1.607,1.311c-0.223,0-0.4-0.122-0.527-0.367
				c-0.127-0.244-0.191-0.564-0.191-0.962c0-0.321,0.076-0.704,0.226-1.146c0.152-0.442,0.354-0.892,0.609-1.348
				c0.252-0.456,0.516-0.852,0.789-1.192c0.271-0.338,0.525-0.576,0.758-0.711c0.096-0.057,0.17-0.086,0.223-0.086
				c0.066,0,0.111,0.029,0.133,0.088c0.021,0.059,0.033,0.158,0.033,0.301c0,0.438-0.178,0.977-0.535,1.614
				c-0.355,0.639-0.852,1.29-1.488,1.956c-0.031,0.164-0.049,0.289-0.049,0.378c0,0.202,0.045,0.366,0.131,0.491
				c0.086,0.127,0.207,0.189,0.361,0.189c0.08,0,0.164-0.03,0.256-0.092c0.092-0.062,0.188-0.138,0.289-0.229
				C93.662,40.161,93.859,39.979,94.152,39.708z M92.738,38.856c0.164-0.16,0.322-0.344,0.477-0.548
				c0.152-0.205,0.297-0.425,0.432-0.657c0.137-0.233,0.242-0.443,0.32-0.629c0.076-0.187,0.115-0.326,0.115-0.421
				c0-0.073-0.025-0.108-0.076-0.108c-0.018,0-0.055,0.017-0.107,0.051c-0.193,0.158-0.408,0.467-0.648,0.926
				C93.01,37.928,92.84,38.391,92.738,38.856z"/>
			<path class="st0" d="M97.5,39.751v0.316c-0.209,0.189-0.375,0.315-0.502,0.379c-0.125,0.062-0.307,0.088-0.543,0.075
				c-0.41,0.485-0.771,0.729-1.084,0.729c-0.176,0-0.336-0.059-0.482-0.175c-0.145-0.117-0.26-0.276-0.348-0.479
				c-0.086-0.201-0.129-0.427-0.129-0.676c0-0.201,0.066-0.426,0.201-0.672c0.133-0.246,0.307-0.475,0.52-0.688
				c0.213-0.213,0.441-0.385,0.684-0.516c0.242-0.131,0.469-0.196,0.676-0.196c0.148,0,0.266,0.022,0.35,0.068
				c0.086,0.046,0.129,0.11,0.129,0.192c0,0.062-0.037,0.135-0.109,0.217c0.119,0.025,0.201,0.067,0.246,0.126
				c0.045,0.058,0.066,0.164,0.066,0.319c0,0.15-0.035,0.342-0.107,0.572c-0.07,0.229-0.168,0.445-0.291,0.647l0.086,0.085h0.07
				c0.055,0,0.107-0.014,0.16-0.041c0.051-0.025,0.098-0.055,0.139-0.084C97.271,39.922,97.361,39.854,97.5,39.751z M96.525,38.507
				c-0.262,0.158-0.484,0.301-0.672,0.428c-0.186,0.128-0.344,0.258-0.473,0.389c-0.129,0.131-0.215,0.262-0.26,0.395
				c-0.078,0.354-0.117,0.544-0.117,0.572c0,0.208,0.145,0.312,0.434,0.312c0.137,0,0.363-0.117,0.682-0.351
				c-0.055-0.147-0.08-0.29-0.08-0.425c0-0.199,0.041-0.402,0.123-0.608C96.244,39.013,96.365,38.774,96.525,38.507z"/>
			<path class="st0" d="M97.783,40.177v-0.35c0.172-0.184,0.352-0.439,0.533-0.767c-0.176-0.025-0.264-0.097-0.264-0.213
				c0-0.098,0.059-0.224,0.176-0.378c0.119-0.154,0.258-0.293,0.416-0.416c0.16-0.123,0.285-0.186,0.377-0.186
				c0.104,0,0.156,0.043,0.156,0.129c0,0.034-0.01,0.057-0.029,0.065c-0.025,0.016-0.037,0.042-0.037,0.081
				c0,0.031,0.025,0.047,0.076,0.047c0.156,0,0.355-0.032,0.594-0.098c0.236-0.064,0.4-0.096,0.488-0.096
				c0.072,0,0.121,0.066,0.146,0.203c0.066,0.359,0.1,0.562,0.1,0.609c0,0.045-0.02,0.086-0.059,0.125
				c-0.039,0.04-0.15,0.118-0.332,0.234c-0.18,0.117-0.35,0.229-0.504,0.338c-0.154,0.109-0.354,0.262-0.6,0.457
				c0.17,0.078,0.293,0.167,0.371,0.265c0.076,0.098,0.145,0.247,0.201,0.449l1.182-0.927v0.316l-1.191,0.96
				c-0.031,0.303-0.137,0.61-0.314,0.923c-0.178,0.312-0.385,0.592-0.621,0.842c-0.236,0.248-0.473,0.453-0.705,0.611
				c-0.234,0.16-0.404,0.239-0.512,0.239c-0.104,0-0.176-0.034-0.217-0.102c-0.041-0.067-0.061-0.167-0.061-0.296
				c0-0.185,0.039-0.362,0.119-0.529c0.08-0.167,0.197-0.334,0.352-0.498c0.152-0.166,0.336-0.335,0.553-0.507
				c0.215-0.172,0.504-0.381,0.863-0.626c-0.035-0.225-0.094-0.363-0.176-0.419c-0.082-0.056-0.207-0.11-0.377-0.166
				c-0.168-0.055-0.252-0.138-0.252-0.248c0-0.123,0.592-0.595,1.774-1.414c-0.19,0.038-0.412,0.08-0.666,0.126
				c-0.256,0.045-0.5,0.078-0.729,0.097c-0.162,0.255-0.314,0.479-0.459,0.671C98.012,39.925,97.887,40.072,97.783,40.177z
				 M98.992,41.528c-0.227,0.158-0.445,0.336-0.656,0.532c-0.211,0.197-0.395,0.384-0.547,0.561
				c-0.152,0.177-0.229,0.284-0.229,0.321c0,0.072,0.031,0.109,0.094,0.109c0.113,0,0.26-0.063,0.44-0.189
				c0.18-0.126,0.355-0.307,0.525-0.541C98.789,42.086,98.914,41.822,98.992,41.528z M100.02,36.853c0.018,0,0.039-0.01,0.064-0.026
				c0.021-0.018,0.051-0.046,0.082-0.085c0.031-0.039,0.061-0.075,0.086-0.107c0.279-0.314,0.5-0.473,0.662-0.473
				c0.135,0,0.201,0.062,0.201,0.185c0,0.073-0.082,0.223-0.248,0.45c-0.164,0.227-0.352,0.435-0.559,0.623
				c-0.209,0.189-0.383,0.284-0.521,0.284c-0.109,0-0.197-0.042-0.262-0.126c-0.064-0.082-0.131-0.232-0.201-0.446
				c-0.123-0.356-0.186-0.608-0.186-0.757c0-0.047,0.016-0.093,0.049-0.137c0.031-0.045,0.074-0.066,0.127-0.066
				c0.051,0,0.109,0.023,0.178,0.071c0.066,0.047,0.141,0.119,0.219,0.215c0.08,0.097,0.146,0.194,0.203,0.296
				c0.006,0.016,0.021,0.036,0.043,0.061C99.98,36.839,100,36.853,100.02,36.853z"/>
			<path class="st0" d="M101.867,39.931v0.118c0,0.186,0.045,0.331,0.137,0.435c0.092,0.104,0.211,0.156,0.359,0.156
				c0.154,0,0.314-0.036,0.481-0.108c0.164-0.073,0.33-0.169,0.492-0.288c0.164-0.12,0.365-0.281,0.602-0.482v0.288
				c-0.355,0.429-0.689,0.757-1.002,0.985s-0.629,0.344-0.951,0.344c-0.281,0-0.502-0.109-0.666-0.326
				c-0.164-0.219-0.246-0.516-0.246-0.895c0-0.33,0.076-0.631,0.232-0.9c0.152-0.27,0.406-0.555,0.756-0.854
				c0.238-0.205,0.477-0.359,0.715-0.464c0.236-0.104,0.447-0.155,0.633-0.155c0.148,0,0.266,0.033,0.352,0.102
				c0.088,0.067,0.131,0.169,0.131,0.305c0,0.198-0.074,0.396-0.223,0.594c-0.148,0.197-0.373,0.393-0.678,0.586
				C102.686,39.563,102.311,39.751,101.867,39.931z M101.914,39.623c0.283-0.11,0.525-0.247,0.729-0.411
				c0.201-0.164,0.35-0.32,0.447-0.471c0.096-0.149,0.145-0.26,0.145-0.328c0-0.073-0.035-0.109-0.1-0.109
				c-0.059,0-0.15,0.036-0.277,0.109c-0.127,0.072-0.258,0.166-0.389,0.283c-0.131,0.117-0.248,0.254-0.352,0.411
				S101.945,39.437,101.914,39.623z"/>
			<path class="st0" d="M107.475,38.904c-0.557,0.618-0.834,1.048-0.834,1.291c0,0.136,0.057,0.203,0.166,0.203
				c0.092,0,0.211-0.048,0.357-0.143c0.146-0.097,0.375-0.268,0.688-0.514v0.326c-0.447,0.441-0.791,0.76-1.031,0.955
				c-0.238,0.195-0.434,0.293-0.586,0.293c-0.258,0-0.387-0.17-0.387-0.51c0-0.102,0.016-0.201,0.047-0.299
				c0.031-0.098,0.074-0.199,0.129-0.305c0.057-0.105,0.141-0.256,0.254-0.453c0.113-0.197,0.244-0.421,0.393-0.67
				c-0.18,0.092-0.406,0.273-0.676,0.544c-0.178,0.171-0.326,0.332-0.449,0.485c-0.123,0.152-0.256,0.322-0.395,0.51
				c-0.141,0.188-0.244,0.314-0.309,0.379c-0.064,0.064-0.129,0.097-0.195,0.097c-0.102,0-0.195-0.105-0.279-0.317
				c-0.086-0.211-0.129-0.457-0.129-0.737c0-0.173,0.02-0.309,0.061-0.406c0.039-0.099,0.117-0.237,0.234-0.417
				c0.217-0.334,0.404-0.579,0.562-0.734c0.156-0.156,0.309-0.234,0.453-0.234c0.102,0,0.182,0.017,0.244,0.052
				c0.061,0.034,0.092,0.089,0.092,0.161c0,0.031-0.01,0.064-0.027,0.1c-0.02,0.034-0.041,0.066-0.064,0.094
				c-0.023,0.029-0.074,0.084-0.15,0.166c-0.498,0.552-0.746,0.909-0.746,1.073c0,0.091,0.029,0.138,0.09,0.138
				c0.037,0,0.111-0.061,0.221-0.183c0.107-0.121,0.248-0.28,0.42-0.478c0.172-0.197,0.375-0.402,0.609-0.617
				c0.236-0.215,0.502-0.421,0.803-0.619c0.166-0.117,0.305-0.176,0.416-0.176c0.051,0,0.1,0.07,0.148,0.209
				c0.049,0.139,0.074,0.279,0.074,0.42C107.678,38.657,107.609,38.763,107.475,38.904z"/>
			<path class="st0" d="M110.354,39.944l-0.844,0.715c-0.4,0.35-0.668,0.524-0.803,0.524c-0.123,0-0.252-0.141-0.389-0.423
				c-0.135-0.282-0.203-0.529-0.203-0.74c0-0.18,0.027-0.332,0.082-0.457c0.057-0.124,0.152-0.285,0.287-0.484
				c0.193-0.268,0.377-0.494,0.553-0.681c0.178-0.187,0.334-0.33,0.469-0.433c0.135-0.103,0.23-0.154,0.283-0.154
				c0.086,0,0.168,0.045,0.25,0.133c0.078,0.088,0.119,0.18,0.119,0.274c0,0.06-0.043,0.155-0.129,0.288
				c-0.088,0.133-0.225,0.301-0.412,0.504c-0.188,0.203-0.449,0.447-0.783,0.73l-0.09,0.26c-0.025,0.051-0.037,0.096-0.037,0.133
				c0,0.085,0.043,0.128,0.127,0.128c0.088,0,0.297-0.112,0.623-0.336c0.326-0.224,0.68-0.524,1.061-0.903
				c0.148-0.148,0.271-0.279,0.369-0.393c0.098-0.113,0.186-0.22,0.266-0.318c0.078-0.1,0.145-0.175,0.195-0.225
				c0.053-0.051,0.098-0.078,0.141-0.081c0.078-0.009,0.139,0.024,0.184,0.099c0.045,0.076,0.066,0.188,0.066,0.336
				c0,0.086-0.039,0.192-0.113,0.319c-0.076,0.128-0.219,0.346-0.426,0.653c-0.209,0.307-0.416,0.625-0.621,0.955
				c-0.207,0.329-0.418,0.7-0.633,1.113c0.01-0.01,0.107-0.104,0.291-0.283s0.379-0.367,0.584-0.562
				c0.205-0.196,0.373-0.354,0.506-0.471c0.133-0.119,0.299-0.257,0.496-0.414v0.316c-0.424,0.457-0.811,0.891-1.156,1.301
				c-0.344,0.41-0.611,0.738-0.799,0.983c-0.188,0.246-0.297,0.39-0.328,0.431c-0.086,0.11-0.162,0.213-0.229,0.31
				c-0.068,0.097-0.125,0.17-0.172,0.223c-0.045,0.052-0.082,0.077-0.109,0.077c-0.068,0-0.127-0.065-0.178-0.195
				c-0.053-0.131-0.078-0.247-0.078-0.348c0-0.092,0.018-0.172,0.051-0.242C109.053,42.097,109.561,41.209,110.354,39.944z
				 M110.684,36.951c-0.055,0-0.104-0.019-0.146-0.055c-0.045-0.036-0.066-0.076-0.066-0.12c0-0.117,0.164-0.414,0.492-0.895
				c0.141-0.197,0.26-0.33,0.355-0.395c0.098-0.065,0.234-0.097,0.41-0.097c0.232,0,0.35,0.081,0.35,0.241
				c0,0.092-0.102,0.242-0.305,0.454c-0.203,0.211-0.42,0.408-0.652,0.591C110.889,36.86,110.742,36.951,110.684,36.951z"/>
		</g>
	</g>
</g>
</svg>
